<svg width="38" height="37" viewBox="0 0 38 37" fill="none" xmlns="http://www.w3.org/2000/svg">
<path fill-rule="evenodd" clip-rule="evenodd" d="M0.957642 1.90658L4.43289 3.6165L4.7509 2.66842L1.27565 0.958496L0.957642 1.90658ZM32.6154 25.8977H14.015L7.37847 8.54783L36.1724 8.30648L32.6154 25.8977ZM6.06741 8.55881L6.06353 7.87945L4.4329 3.61648L5.305 3.12715L6.99717 7.55099L36.375 7.30476L36.3804 7.27811L36.4676 7.30398L37.0133 7.29941L37.0143 7.46612L37.3391 7.56248L33.4295 26.8977H14.3384C14.338 27.2357 14.1664 27.5653 13.8562 27.7531C13.7543 27.8148 13.5625 28.0482 13.5237 28.379C13.4955 28.6194 13.5491 28.9068 13.8575 29.1861H33.4295V30.1861H31.0945H15.6731H14.3297C14.3073 30.3558 14.241 30.5221 14.1286 30.6672C13.7902 31.1037 13.1621 31.1832 12.7256 30.8449C11.7591 30.0957 11.4279 29.0776 11.5373 28.1458C11.6388 27.2818 12.1257 26.4629 12.8202 26.0423C12.8723 26.0108 12.926 25.9846 12.9809 25.9636L6.32258 8.55668L6.06741 8.55881ZM15.6731 30.1861C16.9627 30.1861 18.0081 31.4522 18.0081 33.014C18.0081 34.5758 16.9627 35.842 15.6731 35.842C14.3836 35.842 13.3382 34.5758 13.3382 33.014C13.3382 31.4522 14.3836 30.1861 15.6731 30.1861ZM31.0945 30.1861C32.3841 30.1861 33.4295 31.4522 33.4295 33.014C33.4295 34.5758 32.3841 35.842 31.0945 35.842C29.805 35.842 28.7596 34.5758 28.7596 33.014C28.7596 31.4522 29.805 30.1861 31.0945 30.1861ZM16.0081 33.014C16.0081 33.3563 15.8923 33.6066 15.7819 33.7403C15.7311 33.8019 15.6935 33.8279 15.6731 33.8382C15.6527 33.8279 15.6152 33.8019 15.5643 33.7403C15.4539 33.6066 15.3382 33.3563 15.3382 33.014C15.3382 32.6717 15.4539 32.4214 15.5643 32.2877C15.6152 32.2261 15.6527 32.2001 15.6731 32.1898C15.6935 32.2001 15.7311 32.2261 15.7819 32.2877C15.8923 32.4214 16.0081 32.6717 16.0081 33.014ZM15.6556 33.8443C15.6555 33.844 15.6582 33.843 15.6638 33.8424C15.6585 33.8444 15.6557 33.8447 15.6556 33.8443ZM15.6825 33.8424C15.6881 33.843 15.6907 33.844 15.6906 33.8443C15.6906 33.8447 15.6878 33.8444 15.6825 33.8424ZM15.6906 32.1837C15.6907 32.184 15.6881 32.185 15.6825 32.1856C15.6878 32.1836 15.6906 32.1833 15.6906 32.1837ZM15.6638 32.1856C15.6582 32.185 15.6555 32.184 15.6556 32.1837C15.6557 32.1833 15.6585 32.1836 15.6638 32.1856ZM31.2033 33.7403C31.3137 33.6066 31.4295 33.3563 31.4295 33.014C31.4295 32.6717 31.3137 32.4214 31.2033 32.2877C31.1525 32.2261 31.115 32.2001 31.0945 32.1898C31.0741 32.2001 31.0366 32.2261 30.9857 32.2877C30.8753 32.4214 30.7596 32.6717 30.7596 33.014C30.7596 33.3563 30.8753 33.6066 30.9857 33.7403C31.0366 33.8019 31.0741 33.8279 31.0945 33.8382C31.115 33.8279 31.1525 33.8019 31.2033 33.7403ZM31.077 33.8443C31.077 33.844 31.0796 33.843 31.0852 33.8424C31.0799 33.8444 31.0771 33.8447 31.077 33.8443ZM31.1039 33.8424C31.1095 33.843 31.1121 33.844 31.1121 33.8443C31.112 33.8447 31.1092 33.8444 31.1039 33.8424ZM31.1121 32.1837C31.1121 32.184 31.1095 32.185 31.1039 32.1856C31.1092 32.1836 31.112 32.1833 31.1121 32.1837ZM31.0852 32.1856C31.0796 32.185 31.077 32.184 31.077 32.1837C31.0771 32.1833 31.0799 32.1836 31.0852 32.1856Z" fill="#1A874A"/>
<path d="M4.43289 3.6165L4.21215 4.06514L4.72512 4.31754L4.90693 3.77551L4.43289 3.6165ZM0.957642 1.90658L0.483598 1.74758L0.344535 2.16216L0.7369 2.35522L0.957642 1.90658ZM4.7509 2.66842L5.22494 2.82742L5.36401 2.41284L4.97164 2.21978L4.7509 2.66842ZM1.27565 0.958496L1.4964 0.509861L0.983421 0.257463L0.801611 0.79949L1.27565 0.958496ZM14.015 25.8977L13.548 26.0764L13.6709 26.3977H14.015V25.8977ZM32.6154 25.8977V26.3977H33.0245L33.1055 25.9968L32.6154 25.8977ZM7.37847 8.54783L7.37428 8.04784L6.6542 8.05388L6.91147 8.72646L7.37847 8.54783ZM36.1724 8.30648L36.6625 8.40558L36.7847 7.80134L36.1683 7.8065L36.1724 8.30648ZM6.06353 7.87945L6.56352 7.87659L6.563 7.7857L6.53053 7.70081L6.06353 7.87945ZM6.06741 8.55881L5.56742 8.56167L5.57029 9.063L6.0716 9.0588L6.06741 8.55881ZM4.4329 3.61648L4.18824 3.18043L3.81161 3.39176L3.9659 3.79512L4.4329 3.61648ZM5.305 3.12715L5.772 2.94852L5.56518 2.40783L5.06034 2.6911L5.305 3.12715ZM6.99717 7.55099L6.53016 7.72962L6.6542 8.05388L7.00136 8.05097L6.99717 7.55099ZM36.375 7.30476L36.3792 7.80474L36.7847 7.80134L36.8651 7.40384L36.375 7.30476ZM36.3804 7.27811L36.5226 6.79875L35.9986 6.64334L35.8903 7.17903L36.3804 7.27811ZM36.4676 7.30398L36.3254 7.78334L36.3971 7.80459L36.4718 7.80396L36.4676 7.30398ZM37.0133 7.29941L37.5133 7.29655L37.5104 6.79522L37.0091 6.79942L37.0133 7.29941ZM37.0143 7.46612L36.5143 7.46898L36.5164 7.83998L36.8721 7.94548L37.0143 7.46612ZM37.3391 7.56248L37.8292 7.66157L37.9198 7.2132L37.4813 7.08312L37.3391 7.56248ZM33.4295 26.8977V27.3977H33.8385L33.9195 26.9968L33.4295 26.8977ZM14.3384 26.8977V26.3977H13.8388L13.8384 26.8973L14.3384 26.8977ZM13.8562 27.7531L14.1152 28.1808L14.1152 28.1808L13.8562 27.7531ZM13.5237 28.379L14.0203 28.4373L13.5237 28.379ZM13.8575 29.1861L13.5219 29.5567L13.6648 29.6861H13.8575V29.1861ZM33.4295 29.1861H33.9295V28.6861H33.4295V29.1861ZM33.4295 30.1861V30.6861H33.9295V30.1861H33.4295ZM14.3297 30.1861V29.6861H13.8912L13.834 30.1208L14.3297 30.1861ZM14.1286 30.6672L13.7334 30.3608L14.1286 30.6672ZM12.7256 30.8449L13.0319 30.4497L12.7256 30.8449ZM11.5373 28.1458L11.0407 28.0875L11.5373 28.1458ZM12.8202 26.0423L12.5612 25.6147L12.5612 25.6147L12.8202 26.0423ZM12.9809 25.9636L13.1601 26.4304L13.6263 26.2514L13.4479 25.7849L12.9809 25.9636ZM6.32258 8.55668L6.78958 8.37804L6.66555 8.05378L6.31839 8.05669L6.32258 8.55668ZM15.7819 33.7403L15.3964 33.4219L15.3964 33.4219L15.7819 33.7403ZM15.6731 33.8382L15.4473 34.2843L15.6731 34.3986L15.8989 34.2843L15.6731 33.8382ZM15.5643 33.7403L15.9499 33.4219L15.9499 33.4219L15.5643 33.7403ZM15.5643 32.2877L15.1788 31.9694L15.1788 31.9694L15.5643 32.2877ZM15.6731 32.1898L15.8989 31.7437L15.6731 31.6294L15.4473 31.7437L15.6731 32.1898ZM15.7819 32.2877L16.1675 31.9694L16.1675 31.9694L15.7819 32.2877ZM15.6556 33.8443L15.1645 33.9381L15.1647 33.9391L15.6556 33.8443ZM15.6638 33.8424L15.8403 34.3102L15.611 33.3452L15.6638 33.8424ZM15.6825 33.8424L15.7352 33.3452L15.5059 34.3102L15.6825 33.8424ZM15.6906 33.8443L16.1816 33.9391L16.182 33.9368L15.6906 33.8443ZM15.6906 32.1837L16.1817 32.0894L16.1814 32.0882L15.6906 32.1837ZM15.6825 32.1856L15.5059 31.7178L15.735 32.6828L15.6825 32.1856ZM15.6638 32.1856L15.6112 32.6828L15.8404 31.7178L15.6638 32.1856ZM15.6556 32.1837L15.1646 32.0894L15.1643 32.0907L15.6556 32.1837ZM31.2033 33.7403L30.8178 33.4219L30.8178 33.422L31.2033 33.7403ZM31.2033 32.2877L31.5889 31.9694L31.5889 31.9694L31.2033 32.2877ZM31.0945 32.1898L31.3203 31.7437L31.0945 31.6294L30.8687 31.7437L31.0945 32.1898ZM30.9857 32.2877L30.6002 31.9694L30.6002 31.9694L30.9857 32.2877ZM30.9857 33.7403L31.3713 33.4219L30.9857 33.7403ZM31.0945 33.8382L30.8687 34.2843L31.0945 34.3986L31.3203 34.2843L31.0945 33.8382ZM31.077 33.8443L31.5682 33.7509L31.5679 33.7493L31.077 33.8443ZM31.0852 33.8424L31.2617 34.3102L31.0325 33.3452L31.0852 33.8424ZM31.1039 33.8424L31.1566 33.3452L30.9273 34.3102L31.1039 33.8424ZM31.1121 33.8443L31.6028 33.9404L31.6034 33.9368L31.1121 33.8443ZM31.1039 32.1856L30.9273 31.7178L31.1565 32.6828L31.1039 32.1856ZM31.0852 32.1856L31.0326 32.6828L31.2617 31.7178L31.0852 32.1856ZM31.077 32.1837L31.5678 32.2792L31.5683 32.2766L31.077 32.1837ZM4.65363 3.16787L1.17838 1.45795L0.7369 2.35522L4.21215 4.06514L4.65363 3.16787ZM4.27686 2.50941L3.95884 3.4575L4.90693 3.77551L5.22494 2.82742L4.27686 2.50941ZM1.05491 1.40713L4.53016 3.11705L4.97164 2.21978L1.4964 0.509861L1.05491 1.40713ZM1.43168 2.06559L1.7497 1.1175L0.801611 0.79949L0.483598 1.74758L1.43168 2.06559ZM14.015 26.3977H32.6154V25.3977H14.015V26.3977ZM6.91147 8.72646L13.548 26.0764L14.482 25.7191L7.84547 8.36919L6.91147 8.72646ZM36.1683 7.8065L7.37428 8.04784L7.38266 9.04781L36.1766 8.80647L36.1683 7.8065ZM33.1055 25.9968L36.6625 8.40558L35.6824 8.20739L32.1254 25.7986L33.1055 25.9968ZM5.56354 7.8823L5.56742 8.56167L6.56741 8.55596L6.56352 7.87659L5.56354 7.8823ZM3.9659 3.79512L5.59653 8.05808L6.53053 7.70081L4.8999 3.43785L3.9659 3.79512ZM5.06034 2.6911L4.18824 3.18043L4.67757 4.05253L5.54967 3.5632L5.06034 2.6911ZM7.46417 7.37236L5.772 2.94852L4.838 3.30578L6.53016 7.72962L7.46417 7.37236ZM36.3708 6.80477L6.99298 7.05101L7.00136 8.05097L36.3792 7.80474L36.3708 6.80477ZM35.8903 7.17903L35.8849 7.20568L36.8651 7.40384L36.8705 7.37719L35.8903 7.17903ZM36.6098 6.82462L36.5226 6.79875L36.2382 7.75747L36.3254 7.78334L36.6098 6.82462ZM37.0091 6.79942L36.4634 6.804L36.4718 7.80396L37.0175 7.79939L37.0091 6.79942ZM37.5143 7.46326L37.5133 7.29655L36.5133 7.30227L36.5143 7.46898L37.5143 7.46326ZM37.4813 7.08312L37.1564 6.98677L36.8721 7.94548L37.1969 8.04183L37.4813 7.08312ZM33.9195 26.9968L37.8292 7.66157L36.849 7.46338L32.9394 26.7986L33.9195 26.9968ZM14.3384 27.3977H33.4295V26.3977H14.3384V27.3977ZM14.1152 28.1808C14.581 27.8987 14.8379 27.4036 14.8384 26.8982L13.8384 26.8973C13.8382 27.0678 13.7518 27.2318 13.5972 27.3254L14.1152 28.1808ZM14.0203 28.4373C14.0302 28.3527 14.06 28.2799 14.0931 28.2256C14.1096 28.1986 14.1247 28.1798 14.1344 28.1692C14.1472 28.1553 14.1425 28.1643 14.1152 28.1808L13.5972 27.3254C13.4549 27.4116 13.3302 27.556 13.2395 27.7047C13.1415 27.8653 13.056 28.0745 13.0271 28.3207L14.0203 28.4373ZM14.1931 28.8154C14.0934 28.7252 14.0535 28.6515 14.0357 28.6011C14.0175 28.5498 14.0133 28.4969 14.0203 28.4373L13.0271 28.3207C12.9817 28.7074 13.0833 29.1596 13.5219 29.5567L14.1931 28.8154ZM33.4295 28.6861H13.8575V29.6861H33.4295V28.6861ZM33.9295 30.1861V29.1861H32.9295V30.1861H33.9295ZM31.0945 30.6861H33.4295V29.6861H31.0945V30.6861ZM15.6731 30.6861H31.0945V29.6861H15.6731V30.6861ZM14.3297 30.6861H15.6731V29.6861H14.3297V30.6861ZM14.5238 30.9735C14.6919 30.7565 14.7918 30.5066 14.8254 30.2514L13.834 30.1208C13.8229 30.2051 13.7901 30.2876 13.7334 30.3608L14.5238 30.9735ZM12.4193 31.24C13.074 31.7476 14.0162 31.6282 14.5238 30.9735L13.7334 30.3608C13.5642 30.5791 13.2501 30.6189 13.0319 30.4497L12.4193 31.24ZM11.0407 28.0875C10.9117 29.1863 11.3087 30.3792 12.4193 31.24L13.0319 30.4497C12.2095 29.8122 11.9441 28.969 12.0339 28.2041L11.0407 28.0875ZM12.5612 25.6147C11.7181 26.1252 11.1578 27.0908 11.0407 28.0875L12.0339 28.2041C12.1198 27.4728 12.5333 26.8006 13.0792 26.47L12.5612 25.6147ZM12.8017 25.4968C12.7193 25.5284 12.6388 25.5677 12.5612 25.6147L13.0792 26.47C13.1057 26.454 13.1328 26.4408 13.1601 26.4304L12.8017 25.4968ZM5.85558 8.73531L12.5139 26.1422L13.4479 25.7849L6.78958 8.37804L5.85558 8.73531ZM6.0716 9.0588L6.32677 9.05666L6.31839 8.05669L6.06322 8.05883L6.0716 9.0588ZM18.5081 33.014C18.5081 31.2699 17.3242 29.6861 15.6731 29.6861V30.6861C16.6012 30.6861 17.5081 31.6344 17.5081 33.014H18.5081ZM15.6731 36.342C17.3242 36.342 18.5081 34.7581 18.5081 33.014H17.5081C17.5081 34.3936 16.6012 35.342 15.6731 35.342V36.342ZM12.8382 33.014C12.8382 34.7581 14.0221 36.342 15.6731 36.342V35.342C14.7451 35.342 13.8382 34.3936 13.8382 33.014H12.8382ZM15.6731 29.6861C14.0221 29.6861 12.8382 31.2699 12.8382 33.014H13.8382C13.8382 31.6344 14.7451 30.6861 15.6731 30.6861V29.6861ZM33.9295 33.014C33.9295 31.2699 32.7456 29.6861 31.0945 29.6861V30.6861C32.0226 30.6861 32.9295 31.6344 32.9295 33.014H33.9295ZM31.0945 36.342C32.7456 36.342 33.9295 34.7581 33.9295 33.014H32.9295C32.9295 34.3936 32.0226 35.342 31.0945 35.342V36.342ZM28.2596 33.014C28.2596 34.7581 29.4435 36.342 31.0945 36.342V35.342C30.1665 35.342 29.2596 34.3936 29.2596 33.014H28.2596ZM31.0945 29.6861C29.4435 29.6861 28.2596 31.2699 28.2596 33.014H29.2596C29.2596 31.6344 30.1665 30.6861 31.0945 30.6861V29.6861ZM16.1675 34.0586C16.3556 33.8308 16.5081 33.4665 16.5081 33.014H15.5081C15.5081 33.2461 15.4291 33.3823 15.3964 33.4219L16.1675 34.0586ZM15.8989 34.2843C15.9968 34.2348 16.0858 34.1576 16.1675 34.0586L15.3964 33.4219C15.3872 33.433 15.3857 33.4331 15.393 33.4269C15.4 33.421 15.4178 33.4071 15.4473 33.3921L15.8989 34.2843ZM15.1788 34.0586C15.2605 34.1576 15.3495 34.2348 15.4473 34.2843L15.8989 33.3921C15.9285 33.4071 15.9463 33.421 15.9533 33.4269C15.9606 33.4331 15.959 33.433 15.9499 33.4219L15.1788 34.0586ZM14.8382 33.014C14.8382 33.4665 14.9906 33.8308 15.1788 34.0586L15.9499 33.4219C15.9172 33.3823 15.8382 33.2461 15.8382 33.014H14.8382ZM15.1788 31.9694C14.9907 32.1972 14.8382 32.5615 14.8382 33.014H15.8382C15.8382 32.7819 15.9172 32.6457 15.9499 32.6061L15.1788 31.9694ZM15.4473 31.7437C15.3495 31.7932 15.2605 31.8704 15.1788 31.9694L15.9499 32.6061C15.959 32.595 15.9606 32.5949 15.9533 32.6011C15.9463 32.607 15.9285 32.6209 15.8989 32.6359L15.4473 31.7437ZM16.1675 31.9694C16.0858 31.8704 15.9968 31.7932 15.8989 31.7437L15.4473 32.6359C15.4178 32.6209 15.4 32.607 15.393 32.6011C15.3857 32.5949 15.3872 32.595 15.3964 32.6061L16.1675 31.9694ZM16.5081 33.014C16.5081 32.5615 16.3556 32.1972 16.1675 31.9694L15.3964 32.6061C15.4291 32.6457 15.5081 32.7819 15.5081 33.014H16.5081ZM16.1467 33.7506C16.1787 33.9183 16.1183 34.0482 16.078 34.1118C16.038 34.175 15.993 34.2144 15.9707 34.2325C15.9247 34.2698 15.8828 34.2899 15.8681 34.2968C15.8318 34.3138 15.8017 34.3224 15.789 34.3259C15.758 34.3343 15.7326 34.3379 15.7165 34.3396L15.611 33.3452C15.5893 33.3475 15.5598 33.3519 15.5262 33.361C15.5121 33.3649 15.481 33.3739 15.444 33.3912C15.429 33.3982 15.3868 33.4185 15.3407 33.4559C15.3183 33.4741 15.2733 33.5134 15.2332 33.5767C15.1929 33.6404 15.1325 33.7704 15.1645 33.9381L16.1467 33.7506ZM15.4872 33.3746C15.5019 33.3691 15.5261 33.3608 15.5575 33.3544C15.5703 33.3518 15.6018 33.3457 15.6428 33.3447C15.6589 33.3442 15.7081 33.3433 15.769 33.3574C15.7984 33.3643 15.8612 33.3814 15.9294 33.426C16.0014 33.4731 16.1129 33.5752 16.1466 33.7496L15.1647 33.9391C15.1983 34.1135 15.3098 34.2156 15.3819 34.2628C15.4501 34.3075 15.513 34.3246 15.5425 34.3314C15.6036 34.3457 15.6531 34.3447 15.6696 34.3443C15.7113 34.3432 15.7438 34.337 15.7579 34.3341C15.7921 34.3271 15.8203 34.3177 15.8403 34.3102L15.4872 33.3746ZM15.6297 34.3396C15.6136 34.3379 15.5882 34.3343 15.5573 34.3259C15.5445 34.3224 15.5144 34.3138 15.4782 34.2968C15.4635 34.2899 15.4216 34.2698 15.3757 34.2326C15.3535 34.2146 15.3086 34.1754 15.2686 34.1124C15.2284 34.0491 15.1677 33.9195 15.1993 33.7519L16.182 33.9368C16.2136 33.7692 16.1529 33.6395 16.1126 33.5761C16.0726 33.5131 16.0277 33.4738 16.0053 33.4557C15.9593 33.4184 15.9172 33.3982 15.9022 33.3911C15.8653 33.3739 15.8342 33.3649 15.8201 33.361C15.7864 33.3519 15.7569 33.3475 15.7352 33.3452L15.6297 34.3396ZM15.1997 33.7496C15.2333 33.5752 15.3449 33.4731 15.4169 33.426C15.4851 33.3814 15.5479 33.3643 15.5772 33.3574C15.6382 33.3433 15.6874 33.3442 15.7035 33.3447C15.7445 33.3457 15.7759 33.3518 15.7887 33.3544C15.8201 33.3608 15.8443 33.3691 15.8591 33.3746L15.5059 34.3102C15.5259 34.3177 15.5542 34.3271 15.5883 34.3341C15.6025 34.337 15.635 34.3432 15.6767 34.3443C15.6931 34.3447 15.7426 34.3457 15.8037 34.3314C15.8332 34.3246 15.8961 34.3075 15.9643 34.2628C16.0364 34.2157 16.1479 34.1135 16.1816 33.9391L15.1997 33.7496ZM15.1996 32.2779C15.1673 32.1094 15.2283 31.979 15.2686 31.9156C15.3087 31.8525 15.3536 31.8133 15.3759 31.7953C15.4217 31.7581 15.4636 31.7381 15.4782 31.7312C15.5144 31.7142 15.5445 31.7056 15.5573 31.7021C15.5882 31.6937 15.6137 31.6901 15.6299 31.6884L15.735 32.6828C15.7568 32.6805 15.7864 32.6761 15.8201 32.667C15.8342 32.6631 15.8653 32.6541 15.9021 32.6369C15.9171 32.6299 15.9592 32.6097 16.0052 32.5724C16.0275 32.5543 16.0725 32.515 16.1126 32.4519C16.153 32.3884 16.214 32.258 16.1817 32.0894L15.1996 32.2779ZM15.8591 32.6534C15.8444 32.6589 15.8202 32.6672 15.7886 32.6736C15.7759 32.6762 15.7443 32.6823 15.7031 32.6834C15.6869 32.6838 15.6375 32.6847 15.5764 32.6704C15.5469 32.6635 15.4841 32.6462 15.416 32.6015C15.344 32.5542 15.2335 32.4524 15.1998 32.2792L16.1814 32.0882C16.1477 31.9149 16.0372 31.8131 15.9652 31.7658C15.897 31.721 15.8342 31.7037 15.8046 31.6968C15.7432 31.6824 15.6936 31.6833 15.6771 31.6837C15.6352 31.6848 15.6026 31.691 15.5884 31.6939C15.5542 31.7009 15.5259 31.7103 15.5059 31.7178L15.8591 32.6534ZM15.7163 31.6884C15.7326 31.6901 15.758 31.6937 15.789 31.7021C15.8018 31.7056 15.8318 31.7142 15.868 31.7312C15.8826 31.738 15.9243 31.758 15.9702 31.7951C15.9923 31.813 16.0372 31.8521 16.0773 31.915C16.1175 31.9781 16.1788 32.1082 16.1469 32.2766L15.1643 32.0907C15.1325 32.2592 15.1937 32.3893 15.234 32.4525C15.2741 32.5154 15.319 32.5546 15.3413 32.5726C15.3872 32.6098 15.4292 32.6299 15.4442 32.6369C15.481 32.6542 15.512 32.6631 15.5262 32.667C15.5598 32.6761 15.5894 32.6805 15.6112 32.6828L15.7163 31.6884ZM16.1466 32.2779C16.1133 32.4515 16.0028 32.5537 15.9306 32.6012C15.8623 32.6462 15.7994 32.6634 15.7699 32.6704C15.7087 32.6847 15.6593 32.6838 15.6432 32.6834C15.602 32.6823 15.5704 32.6762 15.5576 32.6736C15.5261 32.6672 15.5019 32.6589 15.4872 32.6534L15.8404 31.7178C15.8203 31.7103 15.7921 31.7009 15.7578 31.6939C15.7437 31.691 15.711 31.6848 15.6692 31.6837C15.6527 31.6833 15.603 31.6824 15.5416 31.6968C15.512 31.7037 15.449 31.721 15.3807 31.766C15.3085 31.8135 15.1979 31.9158 15.1646 32.0894L16.1466 32.2779ZM30.9295 33.014C30.9295 33.2461 30.8505 33.3823 30.8178 33.4219L31.5889 34.0586C31.777 33.8308 31.9295 33.4665 31.9295 33.014H30.9295ZM30.8178 32.6061C30.8505 32.6457 30.9295 32.7819 30.9295 33.014H31.9295C31.9295 32.5615 31.777 32.1972 31.5889 31.9694L30.8178 32.6061ZM30.8688 32.6359C30.8392 32.6209 30.8214 32.607 30.8144 32.6011C30.8071 32.5949 30.8086 32.595 30.8178 32.6061L31.5889 31.9694C31.5072 31.8704 31.4182 31.7932 31.3203 31.7437L30.8688 32.6359ZM31.3713 32.6061C31.3805 32.595 31.382 32.5949 31.3747 32.6011C31.3677 32.607 31.3499 32.6209 31.3203 32.6359L30.8687 31.7437C30.7709 31.7932 30.6819 31.8704 30.6002 31.9694L31.3713 32.6061ZM31.2596 33.014C31.2596 32.7819 31.3386 32.6457 31.3713 32.6061L30.6002 31.9694C30.4121 32.1972 30.2596 32.5615 30.2596 33.014H31.2596ZM31.3713 33.4219C31.3386 33.3823 31.2596 33.2461 31.2596 33.014H30.2596C30.2596 33.4665 30.4121 33.8308 30.6002 34.0586L31.3713 33.4219ZM31.3203 33.3921C31.3499 33.4071 31.3677 33.421 31.3747 33.4269C31.382 33.4331 31.3805 33.433 31.3713 33.4219L30.6002 34.0586C30.6819 34.1576 30.7709 34.2348 30.8687 34.2843L31.3203 33.3921ZM30.8178 33.422C30.8086 33.4331 30.8071 33.4331 30.8144 33.4269C30.8214 33.421 30.8392 33.4071 30.8688 33.3921L31.3203 34.2843C31.4182 34.2348 31.5072 34.1576 31.5889 34.0586L30.8178 33.422ZM31.5679 33.7493C31.6004 33.917 31.5402 34.0473 31.4998 34.1113C31.4597 34.1747 31.4147 34.2141 31.3924 34.2323C31.3463 34.2697 31.3043 34.2899 31.2896 34.2967C31.2533 34.3138 31.2231 34.3224 31.2104 34.3259C31.1795 34.3343 31.154 34.3379 31.1379 34.3396L31.0325 33.3452C31.0108 33.3475 30.9812 33.3519 30.9476 33.361C30.9335 33.3649 30.9023 33.3739 30.8654 33.3912C30.8504 33.3982 30.8081 33.4186 30.7619 33.4561C30.7395 33.4743 30.6944 33.5138 30.6543 33.5773C30.6139 33.6413 30.5537 33.7716 30.5861 33.9394L31.5679 33.7493ZM30.9086 33.3746C30.9233 33.3691 30.9475 33.3608 30.9789 33.3544C30.9917 33.3518 31.0232 33.3457 31.0642 33.3447C31.0803 33.3442 31.1295 33.3433 31.1906 33.3575C31.22 33.3643 31.2829 33.3815 31.3513 33.4263C31.4235 33.4736 31.535 33.5762 31.5682 33.7509L30.5858 33.9378C30.6191 34.1126 30.7306 34.2151 30.8029 34.2625C30.8713 34.3074 30.9343 34.3246 30.9638 34.3314C31.025 34.3457 31.0745 34.3447 31.091 34.3443C31.1327 34.3432 31.1652 34.337 31.1793 34.3341C31.2135 34.3271 31.2417 34.3177 31.2617 34.3102L30.9086 33.3746ZM31.0511 34.3396C31.035 34.3379 31.0096 34.3343 30.9787 34.3259C30.9659 34.3224 30.9358 34.3138 30.8996 34.2968C30.8849 34.2899 30.8431 34.2698 30.7971 34.2326C30.7749 34.2146 30.73 34.1754 30.69 34.1124C30.6498 34.0491 30.5891 33.9195 30.6207 33.7519L31.6034 33.9368C31.635 33.7692 31.5743 33.6395 31.5341 33.5761C31.494 33.5131 31.4491 33.4738 31.4268 33.4557C31.3807 33.4184 31.3386 33.3982 31.3236 33.3911C31.2867 33.3739 31.2556 33.3649 31.2415 33.361C31.2079 33.3519 31.1784 33.3475 31.1566 33.3452L31.0511 34.3396ZM30.6214 33.7483C30.6554 33.5743 30.7668 33.4726 30.8386 33.4258C30.9067 33.3813 30.9694 33.3642 30.9987 33.3574C31.0596 33.3433 31.1088 33.3442 31.1249 33.3447C31.1659 33.3457 31.1974 33.3518 31.2101 33.3544C31.2416 33.3608 31.2658 33.3691 31.2805 33.3746L30.9273 34.3102C30.9473 34.3177 30.9755 34.3271 31.0097 34.3341C31.0239 34.337 31.0564 34.3432 31.0981 34.3443C31.1146 34.3447 31.164 34.3457 31.2251 34.3315C31.2545 34.3246 31.3173 34.3075 31.3854 34.263C31.4572 34.2161 31.5687 34.1144 31.6028 33.9403L30.6214 33.7483ZM30.6213 32.2792C30.5885 32.1106 30.6493 31.9798 30.6897 31.9161C30.7298 31.8528 30.7749 31.8134 30.7971 31.7954C30.8431 31.7582 30.885 31.7381 30.8996 31.7312C30.9358 31.7142 30.9659 31.7056 30.9787 31.7021C31.0097 31.6937 31.0351 31.6901 31.0513 31.6884L31.1565 32.6828C31.1783 32.6805 31.2078 32.6761 31.2415 32.667C31.2556 32.6631 31.2867 32.6541 31.3236 32.6369C31.3386 32.6299 31.3807 32.6096 31.4268 32.5723C31.4491 32.5542 31.4942 32.5147 31.5344 32.4514C31.5748 32.3876 31.6357 32.2568 31.6028 32.0882L30.6213 32.2792ZM31.2805 32.6534C31.2658 32.6589 31.2416 32.6672 31.2101 32.6736C31.1973 32.6762 31.1657 32.6823 31.1245 32.6834C31.1083 32.6838 31.059 32.6847 30.9978 32.6704C30.9683 32.6635 30.9055 32.6462 30.8374 32.6015C30.7654 32.5542 30.655 32.4524 30.6213 32.2792L31.6028 32.0882C31.5691 31.9149 31.4586 31.8131 31.3866 31.7658C31.3184 31.721 31.2556 31.7037 31.226 31.6968C31.1647 31.6824 31.115 31.6833 31.0985 31.6837C31.0566 31.6848 31.024 31.691 31.0098 31.6939C30.9756 31.7009 30.9473 31.7103 30.9273 31.7178L31.2805 32.6534ZM31.1378 31.6884C31.154 31.6901 31.1794 31.6937 31.2104 31.7021C31.2232 31.7056 31.2532 31.7142 31.2895 31.7312C31.3041 31.7381 31.346 31.7582 31.392 31.7954C31.4142 31.8134 31.4593 31.8528 31.4994 31.9161C31.5398 31.9798 31.6006 32.1106 31.5678 32.2792L30.5862 32.0882C30.5534 32.2568 30.6143 32.3876 30.6547 32.4514C30.6949 32.5147 30.74 32.5542 30.7623 32.5723C30.8084 32.6096 30.8505 32.6299 30.8655 32.6369C30.9024 32.6541 30.9335 32.6631 30.9476 32.667C30.9813 32.6761 31.0108 32.6805 31.0326 32.6828L31.1378 31.6884ZM31.5683 32.2766C31.5354 32.4505 31.4249 32.5532 31.3525 32.6009C31.2841 32.6461 31.221 32.6634 31.1915 32.6703C31.1302 32.6847 31.0807 32.6838 31.0646 32.6834C31.0234 32.6823 30.9918 32.6762 30.979 32.6736C30.9475 32.6672 30.9233 32.6589 30.9086 32.6534L31.2617 31.7178C31.2417 31.7103 31.2135 31.7009 31.1793 31.6939C31.1651 31.691 31.1325 31.6848 31.0906 31.6837C31.0741 31.6833 31.0244 31.6824 30.9629 31.6968C30.9332 31.7038 30.8701 31.7211 30.8017 31.7663C30.7292 31.8141 30.6187 31.9168 30.5857 32.0907L31.5683 32.2766Z" fill="#008036"/>
</svg>
