<svg width="30" height="30" viewBox="0 0 30 30" fill="none" xmlns="http://www.w3.org/2000/svg">
<g clip-path="url(#clip0_29_653)">
<path d="M4.41352 25.107C4.37413 25.5113 4.54543 25.908 4.86067 26.1421C5.03182 26.2692 5.39293 26.4521 5.88789 26.2483C6.13666 26.1459 6.42149 26.2646 6.52394 26.5135C6.6264 26.7623 6.50766 27.0471 6.25882 27.1495C5.99028 27.26 5.71618 27.3147 5.44778 27.3147C5.03106 27.3147 4.62784 27.1831 4.27967 26.9246C3.69158 26.4878 3.37119 25.7551 3.44365 25.0124L4.22677 16.9963C4.25288 16.7285 4.49155 16.5331 4.75904 16.5588C5.02688 16.5849 5.22275 16.8233 5.19658 17.091L4.41352 25.107ZM12.0679 28.09C12.213 28.3166 12.1469 28.618 11.9203 28.763C11.632 28.9475 11.3215 29.0892 10.9971 29.1841C10.6704 29.2796 10.3372 29.3268 10.002 29.3268C9.16838 29.3268 8.32247 29.0348 7.53245 28.4681C6.19722 29.4211 4.67489 29.5905 3.39646 28.91C2.0528 28.1949 1.25235 26.6674 1.40464 25.1089L3.03639 8.40477C3.10558 7.69661 3.29205 7.05332 3.59128 6.48465C3.14163 6.20769 2.75971 5.81811 2.49243 5.3402C2.40974 5.19236 2.40974 5.01229 2.49243 4.86452C3.04808 3.87105 4.09606 3.25387 5.22734 3.25387H5.68423V2.79691C5.68423 1.66548 6.30149 0.617509 7.29517 0.0619222C7.44294 -0.0206989 7.62301 -0.0207685 7.77078 0.0619918C8.76411 0.617648 9.38123 1.66562 9.38123 2.79691V3.25387H9.83818C10.9696 3.25387 12.0176 3.87105 12.5731 4.86459C12.6557 5.01236 12.6557 5.19236 12.5731 5.34013C12.3059 5.81804 11.924 6.20769 11.4743 6.48465C11.7735 7.05339 11.96 7.69668 12.0292 8.40484L12.3801 11.9965C12.4063 12.2643 12.2104 12.5026 11.9425 12.5287C11.9265 12.5303 11.9105 12.5311 11.8946 12.5311C11.6468 12.5311 11.4348 12.3429 11.4103 12.0912L11.0594 8.49957C10.9995 7.88566 10.8336 7.33724 10.5688 6.86198C10.3321 6.91926 10.0874 6.95086 9.83825 6.95086H5.22721C4.97809 6.95086 4.73343 6.91926 4.49677 6.86198C4.23192 7.33724 4.06613 7.88566 4.0062 8.4995L2.37445 25.2038C2.26002 26.3742 2.85472 27.5179 3.85425 28.0499C4.88802 28.6 6.11571 28.3915 7.22271 27.4779C7.40278 27.3292 7.66296 27.3293 7.8431 27.4779C8.77372 28.2461 9.7967 28.5199 10.7237 28.2489C10.959 28.1801 11.1848 28.077 11.3949 27.9425C11.6215 27.7973 11.9228 27.8635 12.0679 28.09ZM5.22721 5.97639H9.83811C10.5225 5.97639 11.163 5.64744 11.5685 5.10236C11.163 4.55722 10.5225 4.22833 9.83811 4.22833H8.89392C8.62483 4.22833 8.40669 4.01019 8.40669 3.7411V2.79691C8.40669 2.11255 8.07774 1.47205 7.5328 1.06646C6.98758 1.47198 6.65863 2.11248 6.65863 2.79691V3.7411C6.65863 4.01019 6.44049 4.22833 6.1714 4.22833H5.22721C4.54292 4.22833 3.90241 4.55736 3.49683 5.10236C3.90241 5.64744 4.54292 5.97639 5.22721 5.97639ZM17.299 14.4907L17.2991 14.4907C17.3099 14.4962 17.3209 14.5011 17.3321 14.5057C17.7511 14.6776 17.9086 14.8716 17.9123 14.9602C17.9151 15.0278 17.8079 15.1852 17.5013 15.3418C17.2616 15.4642 17.1665 15.7576 17.2889 15.9973C17.375 16.1659 17.546 16.263 17.7232 16.263C17.7978 16.263 17.8734 16.2458 17.9444 16.2096C18.1413 16.1091 18.2978 16.0016 18.4225 15.8922C18.5472 16.0017 18.7037 16.1091 18.9006 16.2096C18.9716 16.2459 19.0472 16.263 19.1217 16.263C19.299 16.263 19.47 16.1659 19.5561 15.9973C19.6784 15.7576 19.5834 15.4641 19.3437 15.3418C19.037 15.1852 18.9299 15.0278 18.9327 14.9602C18.9364 14.8716 19.0939 14.6775 19.5128 14.5057C19.5241 14.5011 19.5351 14.4961 19.5458 14.4907L19.546 14.4907C19.7867 14.3703 19.8841 14.0776 19.7638 13.837C19.6483 13.6059 19.3736 13.5068 19.1389 13.6059C18.8251 13.735 18.5934 13.882 18.4225 14.0325C18.2517 13.882 18.0199 13.735 17.7061 13.6059C17.4713 13.5068 17.1967 13.6059 17.0811 13.837C16.9608 14.0776 17.0583 14.3703 17.299 14.4907ZM22.6122 28.0937C21.3302 28.7319 19.888 29.0515 18.4461 29.0515C17.0368 29.0516 15.6277 28.7465 14.3669 28.1355C10.3559 26.1922 8.0888 19.7161 9.25851 16.1148C9.56297 15.1774 10.0764 14.4808 10.7847 14.0444C11.5542 13.5702 12.5143 13.4317 13.6382 13.6327L13.78 13.6581C14.1524 13.4261 14.5735 13.2571 15.0203 13.1655C14.7556 12.3445 14.8852 11.4473 15.4043 10.6971C15.4941 10.5672 15.6414 10.4889 15.7992 10.4871C16.8147 10.4751 17.777 10.8494 18.4471 11.4892C19.1068 10.8592 20.0534 10.4869 21.048 10.4869C21.0637 10.4869 21.0794 10.4869 21.0952 10.4871C21.253 10.489 21.4002 10.5673 21.49 10.6971C22.0092 11.4473 22.1388 12.3444 21.874 13.1655C22.3212 13.2572 22.7428 13.4264 23.1155 13.6588L23.252 13.6334C24.3642 13.4255 25.3169 13.5551 26.0838 14.0183C26.7903 14.445 27.3058 15.1311 27.6162 16.0575C28.813 19.6295 26.6014 26.1077 22.6122 28.0937ZM13.7748 14.9154C14.2424 15.4363 14.9727 15.7569 15.7563 15.7699C15.933 15.7729 16.0942 15.8712 16.1777 16.0269C16.2611 16.1826 16.2538 16.3712 16.1585 16.5199C15.7898 17.0955 15.7627 17.7677 16.0735 18.361C16.8903 18.3004 17.6309 17.9144 18.0482 17.3191C18.1393 17.189 18.2882 17.1116 18.4471 17.1116C18.606 17.1116 18.7549 17.1891 18.8461 17.3192C19.2632 17.9144 20.0038 18.3003 20.8208 18.361C21.1314 17.7677 21.1044 17.0954 20.7356 16.52C20.6402 16.3713 20.6329 16.1826 20.7164 16.0269C20.7998 15.8713 20.9611 15.7729 21.1377 15.77C21.9213 15.757 22.6516 15.4365 23.1192 14.9155C22.6515 14.3945 21.9213 14.074 21.1378 14.0611C20.9611 14.0582 20.7999 13.9599 20.7164 13.8042C20.6329 13.6485 20.6402 13.4598 20.7355 13.311C21.1044 12.7354 21.1314 12.0632 20.8208 11.47C20.0038 11.5306 19.2632 11.9165 18.846 12.5117C18.7549 12.6418 18.6059 12.7193 18.4471 12.7193C18.2882 12.7193 18.1393 12.6418 18.0481 12.5117C17.6309 11.9165 16.8903 11.5307 16.0734 11.47C15.7627 12.0632 15.7898 12.7355 16.1586 13.3112C16.2539 13.4599 16.2613 13.6486 16.1777 13.8042C16.0942 13.9599 15.933 14.0582 15.7563 14.0611C14.9727 14.0739 14.2424 14.3945 13.7748 14.9154ZM26.6922 16.3672C26.2577 15.0704 25.3695 14.45 24.0482 14.5166C24.08 14.5603 24.1109 14.6048 24.1403 14.6501C24.2451 14.8115 24.2451 15.0195 24.1403 15.1808C23.6493 15.937 22.8173 16.4718 21.874 16.6653C22.1387 17.4863 22.0092 18.3833 21.4902 19.1335C21.4003 19.2634 21.2531 19.3417 21.0952 19.3436C20.0845 19.3544 19.1173 18.9814 18.4472 18.3415C17.7874 18.9715 16.8409 19.3439 15.8463 19.3439C15.8306 19.3439 15.815 19.3438 15.7993 19.3436C15.6414 19.3417 15.4942 19.2635 15.4043 19.1336C14.8852 18.3834 14.7557 17.4863 15.0203 16.6653C14.0769 16.4719 13.2449 15.9371 12.7539 15.1808C12.6491 15.0195 12.6491 14.8115 12.7539 14.6501C12.7823 14.6064 12.8121 14.5636 12.8427 14.5214C11.5056 14.4645 10.613 15.0994 10.1854 16.4159C9.69034 17.94 9.91851 20.2279 10.7809 22.3865C11.703 24.6945 13.1649 26.4704 14.7919 27.2587C17.0772 28.3661 19.9074 28.3518 22.1781 27.2214C23.7979 26.415 25.2443 24.6275 26.1463 22.3174C26.9893 20.158 27.1985 17.8781 26.6922 16.3672ZM17.2887 25.5372C15.9473 25.3091 14.762 24.6346 13.9511 23.6379C13.613 23.2222 13.2332 22.4539 12.9352 21.5827C12.8482 21.3281 12.5711 21.1924 12.3165 21.2795C12.0619 21.3665 11.9261 21.6436 12.0132 21.8982C12.3514 22.887 12.7823 23.7453 13.1952 24.2529C14.1552 25.4329 15.551 26.2302 17.1253 26.4979C17.1529 26.5026 17.1804 26.5049 17.2075 26.5049C17.4408 26.5049 17.6469 26.3369 17.6873 26.0993C17.7325 25.8339 17.554 25.5823 17.2887 25.5372Z" fill="white"/>
</g>
<defs>
<clipPath id="clip0_29_653">
<rect width="29.3269" height="29.3269" rx="12" fill="white"/>
</clipPath>
</defs>
</svg>
