<svg width="30" height="30" viewBox="0 0 30 30" fill="none" xmlns="http://www.w3.org/2000/svg">
<g clip-path="url(#clip0_29_688)">
<path d="M17.5651 3.50813C16.2627 1.23012 14.955 0.304837 14.9 0.266502C14.7577 0.167595 14.569 0.167595 14.4267 0.266502C14.3718 0.304742 13.0641 1.23003 11.7616 3.50813C10.577 5.58014 9.16495 9.23072 9.16495 14.8558C9.16495 20.4811 10.577 24.1317 11.7616 26.2036C13.064 28.4816 14.3717 29.4068 14.4268 29.4451C14.4979 29.4945 14.5807 29.5192 14.6634 29.5192C14.7461 29.5192 14.8289 29.4945 14.9 29.4451C14.9551 29.4068 16.2628 28.4816 17.5652 26.2036C18.7499 24.1317 20.162 20.4811 20.162 14.8558C20.1618 9.23062 18.7497 5.58004 17.5651 3.50813ZM14.6634 17.7541C14.1742 17.7541 13.7778 17.3576 13.7778 16.8686C13.7778 16.3793 14.1742 15.983 14.6634 15.983C15.1525 15.983 15.549 16.3792 15.549 16.8686C15.549 17.3576 15.1525 17.7541 14.6634 17.7541ZM15.549 20.8938C15.549 21.3828 15.1525 21.7793 14.6634 21.7793C14.1742 21.7793 13.7778 21.3828 13.7778 20.8938C13.7778 20.4047 14.1742 20.0082 14.6634 20.0082C15.1525 20.0082 15.549 20.4047 15.549 20.8938ZM14.6634 13.7286C14.1742 13.7286 13.7778 13.3323 13.7778 12.843C13.7778 12.354 14.1742 11.9575 14.6634 11.9575C15.1525 11.9575 15.549 12.354 15.549 12.843C15.549 13.3322 15.1525 13.7286 14.6634 13.7286ZM14.6634 9.7033C14.1742 9.7033 13.7778 9.30677 13.7778 8.8177C13.7778 8.32858 14.1742 7.93219 14.6634 7.93219C15.1525 7.93219 15.549 8.32858 15.549 8.8177C15.549 9.30677 15.1525 9.7033 14.6634 9.7033ZM14.6634 24.0336C15.1525 24.0336 15.549 24.4301 15.549 24.9193C15.549 25.4083 15.1525 25.8049 14.6634 25.8049C14.1742 25.8049 13.7778 25.4083 13.7778 24.9193C13.7778 24.4301 14.1742 24.0336 14.6634 24.0336ZM14.6634 5.67794C14.1742 5.67794 13.7778 5.28145 13.7778 4.79229C13.7778 4.30317 14.1742 3.90663 14.6634 3.90663C15.1525 3.90663 15.549 4.30317 15.549 4.79229C15.549 5.2815 15.1525 5.67794 14.6634 5.67794ZM9.99386 14.8558C9.99386 9.44751 11.3303 5.95185 12.4514 3.97181C12.7951 3.365 13.1396 2.8605 13.4577 2.44767C12.293 4.36297 10.7045 8.19565 10.7045 14.8558C10.7045 21.4912 12.2811 25.32 13.4445 27.2424C11.998 25.3485 9.99386 21.5217 9.99386 14.8558ZM16.8752 25.74C16.5317 26.3468 16.1871 26.8512 15.8691 27.2639C17.0336 25.3486 18.6222 21.5161 18.6222 14.8557C18.6222 8.1956 17.0337 4.36293 15.8691 2.44762C16.1871 2.86045 16.5316 3.36485 16.8753 3.97166C17.9965 5.95171 19.3329 9.44736 19.3329 14.8556C19.3329 20.2643 17.9964 23.7599 16.8752 25.74Z" fill="white"/>
</g>
<defs>
<clipPath id="clip0_29_688">
<rect y="0.192322" width="29.3269" height="29.3269" rx="12" fill="white"/>
</clipPath>
</defs>
</svg>
