<svg width="30" height="30" viewBox="0 0 30 30" fill="none" xmlns="http://www.w3.org/2000/svg">
<g clip-path="url(#clip0_29_670)">
<path d="M26.9407 22.6667H20.3089C22.7402 21.584 25.1407 18.4011 26.1764 15.3923C27.507 11.5441 26.3514 8.54236 23.0058 7.15654C20.9543 6.30679 19.0558 6.54067 17.6249 7.78152V1.83785C17.6249 1.56769 17.405 1.34827 17.1353 1.34827C16.8656 1.34827 16.6457 1.56769 16.6457 1.83785V3.70431C16.3749 3.29593 16.0182 2.89854 15.5363 2.62508C15.0604 2.35681 14.4913 2.21953 13.8448 2.21953C13.0126 2.21953 12.3243 2.45041 12.2403 2.47858C12.2366 2.47979 12.2342 2.48062 12.2328 2.48105C12.0047 2.56241 11.8694 2.80147 11.9187 3.04053C11.935 3.11985 12.3329 4.99118 13.7498 5.79459C14.226 6.06192 14.7942 6.19873 15.4413 6.19873C15.9229 6.19873 16.3504 6.12271 16.6449 6.05187V7.77963C15.2161 6.54051 13.3161 6.30774 11.2656 7.15544C11.0256 7.25549 10.7992 7.36544 10.5826 7.48167C10.5482 7.39372 10.4975 7.31235 10.4152 7.25455L6.63294 4.6062C6.41445 4.45557 6.11743 4.50144 5.95911 4.71615L4.29793 6.95518L0.806414 3.99128C0.599867 3.81803 0.292323 3.84253 0.115933 4.04813C-0.0590436 4.25374 -0.0328129 4.56317 0.173735 4.73861L3.71442 7.74225L0.400858 12.2065C0.294208 12.3504 0.272689 12.5432 0.351224 12.7058L5.02752 22.665H3.99416C2.68011 22.665 1.61124 23.8987 1.61124 25.4174C1.61124 26.9363 2.68011 28.1709 3.99416 28.1709H26.9428C28.2568 28.1709 29.3271 26.9363 29.3271 25.4174C29.3252 23.9006 28.2549 22.6667 26.9407 22.6667ZM15.4421 5.22113C14.9674 5.22113 14.5598 5.12736 14.2328 4.94327C13.5599 4.56112 13.1908 3.78269 13.0124 3.28917C13.2385 3.24331 13.5326 3.20122 13.8488 3.20122C14.3226 3.20122 14.7282 3.29499 15.0552 3.47907C15.7295 3.86122 16.0996 4.63966 16.2756 5.13317C16.0499 5.17904 15.7573 5.22113 15.4421 5.22113ZM11.6403 8.06267C13.7302 7.19659 15.5148 7.61785 16.7385 9.32598C16.7416 9.32988 16.7458 9.33281 16.7499 9.3357C16.7549 9.33921 16.7598 9.34266 16.7624 9.34766C16.7949 9.38771 16.8321 9.41787 16.8753 9.44567C16.8831 9.45031 16.8897 9.45532 16.8962 9.46023C16.9058 9.46746 16.915 9.47445 16.927 9.4796C16.99 9.51023 17.061 9.52986 17.1355 9.52986C17.2099 9.52986 17.2789 9.50928 17.345 9.4796C17.3559 9.47462 17.3647 9.46792 17.3738 9.46094C17.3805 9.45581 17.3874 9.45053 17.3956 9.44567C17.4386 9.41787 17.4769 9.38677 17.5094 9.34766C17.5126 9.34333 17.5171 9.34018 17.5215 9.33713C17.5262 9.33376 17.5308 9.33052 17.5333 9.32598C18.7575 7.6188 20.5431 7.19895 22.631 8.06267C25.4754 9.24101 26.4061 11.7306 25.2517 15.0727C23.8381 19.1758 20.0497 22.8197 17.9064 21.9283C17.7639 21.8689 17.6155 21.7791 17.4377 21.6385C17.3497 21.5705 17.2437 21.5361 17.1355 21.5361C17.0283 21.5361 16.9212 21.5707 16.8312 21.6395C16.6562 21.7791 16.508 21.867 16.3617 21.9283C14.2249 22.8139 10.4318 19.1758 9.01632 15.0717C7.86578 11.7306 8.79831 9.24101 11.6403 8.06267ZM17.2138 22.6667H17.0599C17.0713 22.6589 17.0836 22.6529 17.0959 22.6469C17.1094 22.6403 17.123 22.6336 17.1355 22.6246C17.1513 22.6338 17.1655 22.6411 17.1791 22.6481C17.1909 22.6542 17.2023 22.66 17.2138 22.6667ZM1.35867 12.556L6.46032 5.6826L9.76571 7.99671C7.60803 9.58342 6.99012 12.1936 8.09385 15.3923C9.13303 18.4032 11.5318 21.586 13.9625 22.6667H6.10691L1.35867 12.556ZM26.9407 27.1906H3.99227C3.21949 27.1906 2.58869 26.395 2.58869 25.4174C2.58869 24.4381 3.21949 23.6432 3.99227 23.6432H26.9407C27.7146 23.6432 28.3457 24.4381 28.3457 25.4174C28.3457 26.395 27.7146 27.1906 26.9407 27.1906ZM10.8537 25.4174C10.8537 26.0421 10.3469 26.5441 9.72754 26.5441C9.10868 26.5441 8.60135 26.0401 8.60135 25.4174C8.60135 24.7958 9.10868 24.2927 9.72754 24.2927C10.3469 24.2927 10.8537 24.7958 10.8537 25.4174ZM7.07446 25.4174C7.07446 26.0421 6.56713 26.5441 5.94827 26.5441C5.32941 26.5441 4.82302 26.0401 4.82302 25.4174C4.82302 24.7958 5.32941 24.2927 5.94827 24.2927C6.56697 24.2927 7.07446 24.7958 7.07446 25.4174ZM26.1726 25.4174C26.1726 26.0421 25.6648 26.5441 25.046 26.5441C24.4271 26.5441 23.9212 26.0401 23.9212 25.4174C23.9212 24.7958 24.4273 24.2927 25.046 24.2927C25.6647 24.2927 26.1726 24.7958 26.1726 25.4174ZM14.8447 25.4174C14.8447 26.0421 14.3374 26.5441 13.7187 26.5441C13.0994 26.5441 12.5944 26.0401 12.5944 25.4174C12.5944 24.7958 13.0994 24.2927 13.7187 24.2927C14.3374 24.2927 14.8447 24.7958 14.8447 25.4174ZM18.8351 25.4174C18.8351 26.0421 18.3281 26.5441 17.7084 26.5441C17.0868 26.5441 16.5827 26.0401 16.5827 25.4174C16.5827 24.7958 17.0897 24.2927 17.7084 24.2927C18.3281 24.2908 18.8351 24.7958 18.8351 25.4174ZM22.3346 25.4174C22.3346 26.0421 21.8276 26.5441 21.2089 26.5441C20.5853 26.5441 20.0822 26.0401 20.0822 25.4174C20.0822 24.7958 20.5872 24.2927 21.2089 24.2927C21.8276 24.2908 22.3346 24.7958 22.3346 25.4174Z" fill="white"/>
<path d="M26.9407 22.6667H20.3089C22.7402 21.584 25.1407 18.4011 26.1764 15.3923C27.507 11.5441 26.3514 8.54236 23.0058 7.15654C20.9543 6.30679 19.0558 6.54067 17.6249 7.78152V1.83785C17.6249 1.56769 17.405 1.34827 17.1353 1.34827C16.8656 1.34827 16.6457 1.56769 16.6457 1.83785V3.70431C16.3749 3.29593 16.0182 2.89854 15.5363 2.62508C15.0604 2.35681 14.4913 2.21953 13.8448 2.21953C13.0126 2.21953 12.3243 2.45041 12.2403 2.47858C12.2366 2.47979 12.2342 2.48062 12.2328 2.48105C12.0047 2.56241 11.8694 2.80147 11.9187 3.04053C11.935 3.11985 12.3329 4.99118 13.7498 5.79459C14.226 6.06192 14.7942 6.19873 15.4413 6.19873C15.9229 6.19873 16.3504 6.12271 16.6449 6.05187V7.77963C15.2161 6.54051 13.3161 6.30774 11.2656 7.15544C11.0256 7.25549 10.7992 7.36544 10.5826 7.48167C10.5482 7.39372 10.4975 7.31235 10.4152 7.25455L6.63294 4.6062C6.41445 4.45557 6.11743 4.50144 5.95911 4.71615L4.29793 6.95518L0.806414 3.99128C0.599867 3.81803 0.292323 3.84253 0.115933 4.04813C-0.0590436 4.25374 -0.0328129 4.56317 0.173735 4.73861L3.71442 7.74225L0.400858 12.2065C0.294208 12.3504 0.272689 12.5432 0.351224 12.7058L5.02752 22.665H3.99416C2.68011 22.665 1.61124 23.8987 1.61124 25.4174C1.61124 26.9363 2.68011 28.1709 3.99416 28.1709H26.9428C28.2568 28.1709 29.3271 26.9363 29.3271 25.4174C29.3252 23.9006 28.2549 22.6667 26.9407 22.6667ZM15.4421 5.22113C14.9674 5.22113 14.5598 5.12736 14.2328 4.94327C13.5599 4.56112 13.1908 3.78269 13.0124 3.28917C13.2385 3.24331 13.5326 3.20122 13.8488 3.20122C14.3226 3.20122 14.7282 3.29499 15.0552 3.47907C15.7295 3.86122 16.0996 4.63966 16.2756 5.13317C16.0499 5.17904 15.7573 5.22113 15.4421 5.22113ZM11.6403 8.06267C13.7302 7.19659 15.5148 7.61785 16.7385 9.32598C16.7416 9.32988 16.7458 9.33281 16.7499 9.3357C16.7549 9.33921 16.7598 9.34266 16.7624 9.34766C16.7949 9.38771 16.8321 9.41787 16.8753 9.44567C16.8831 9.45031 16.8897 9.45532 16.8962 9.46023C16.9058 9.46746 16.915 9.47445 16.927 9.4796C16.99 9.51023 17.061 9.52986 17.1355 9.52986C17.2099 9.52986 17.2789 9.50928 17.345 9.4796C17.3559 9.47462 17.3647 9.46792 17.3738 9.46094C17.3805 9.45581 17.3874 9.45053 17.3956 9.44567C17.4386 9.41787 17.4769 9.38677 17.5094 9.34766C17.5126 9.34333 17.5171 9.34018 17.5215 9.33713C17.5262 9.33376 17.5308 9.33052 17.5333 9.32598C18.7575 7.6188 20.5431 7.19895 22.631 8.06267C25.4754 9.24101 26.4061 11.7306 25.2517 15.0727C23.8381 19.1758 20.0497 22.8197 17.9064 21.9283C17.7639 21.8689 17.6155 21.7791 17.4377 21.6385C17.3497 21.5705 17.2437 21.5361 17.1355 21.5361C17.0283 21.5361 16.9212 21.5707 16.8312 21.6395C16.6562 21.7791 16.508 21.867 16.3617 21.9283C14.2249 22.8139 10.4318 19.1758 9.01632 15.0717C7.86578 11.7306 8.79831 9.24101 11.6403 8.06267ZM17.2138 22.6667H17.0599C17.0713 22.6589 17.0836 22.6529 17.0959 22.6469C17.1094 22.6403 17.123 22.6336 17.1355 22.6246C17.1513 22.6338 17.1655 22.6411 17.1791 22.6481C17.1909 22.6542 17.2023 22.66 17.2138 22.6667ZM1.35867 12.556L6.46032 5.6826L9.76571 7.99671C7.60803 9.58342 6.99012 12.1936 8.09385 15.3923C9.13303 18.4032 11.5318 21.586 13.9625 22.6667H6.10691L1.35867 12.556ZM26.9407 27.1906H3.99227C3.21949 27.1906 2.58869 26.395 2.58869 25.4174C2.58869 24.4381 3.21949 23.6432 3.99227 23.6432H26.9407C27.7146 23.6432 28.3457 24.4381 28.3457 25.4174C28.3457 26.395 27.7146 27.1906 26.9407 27.1906ZM10.8537 25.4174C10.8537 26.0421 10.3469 26.5441 9.72754 26.5441C9.10868 26.5441 8.60135 26.0401 8.60135 25.4174C8.60135 24.7958 9.10868 24.2927 9.72754 24.2927C10.3469 24.2927 10.8537 24.7958 10.8537 25.4174ZM7.07446 25.4174C7.07446 26.0421 6.56713 26.5441 5.94827 26.5441C5.32941 26.5441 4.82302 26.0401 4.82302 25.4174C4.82302 24.7958 5.32941 24.2927 5.94827 24.2927C6.56697 24.2927 7.07446 24.7958 7.07446 25.4174ZM26.1726 25.4174C26.1726 26.0421 25.6648 26.5441 25.046 26.5441C24.4271 26.5441 23.9212 26.0401 23.9212 25.4174C23.9212 24.7958 24.4273 24.2927 25.046 24.2927C25.6647 24.2927 26.1726 24.7958 26.1726 25.4174ZM14.8447 25.4174C14.8447 26.0421 14.3374 26.5441 13.7187 26.5441C13.0994 26.5441 12.5944 26.0401 12.5944 25.4174C12.5944 24.7958 13.0994 24.2927 13.7187 24.2927C14.3374 24.2927 14.8447 24.7958 14.8447 25.4174ZM18.8351 25.4174C18.8351 26.0421 18.3281 26.5441 17.7084 26.5441C17.0868 26.5441 16.5827 26.0401 16.5827 25.4174C16.5827 24.7958 17.0897 24.2927 17.7084 24.2927C18.3281 24.2908 18.8351 24.7958 18.8351 25.4174ZM22.3346 25.4174C22.3346 26.0421 21.8276 26.5441 21.2089 26.5441C20.5853 26.5441 20.0822 26.0401 20.0822 25.4174C20.0822 24.7958 20.5872 24.2927 21.2089 24.2927C21.8276 24.2908 22.3346 24.7958 22.3346 25.4174Z" stroke="white"/>
</g>
<defs>
<clipPath id="clip0_29_670">
<rect y="0.0961304" width="29.3269" height="29.3269" rx="12" fill="white"/>
</clipPath>
</defs>
</svg>
