<svg width="30" height="30" viewBox="0 0 30 30" fill="none" xmlns="http://www.w3.org/2000/svg">
<g clip-path="url(#clip0_29_764)">
<path d="M17.6252 15.8636C17.8919 15.8636 18.1082 15.6474 18.1082 15.3806C18.1082 15.1138 17.8919 14.8976 17.6252 14.8976C17.3584 14.8976 17.1421 15.1138 17.1421 15.3806C17.1421 15.6474 17.3584 15.8636 17.6252 15.8636Z" fill="white"/>
<path d="M29.2212 8.18364C29.0717 7.99662 28.8079 7.94736 28.601 8.06771L22.2161 11.7829C21.1592 12.3979 19.9614 12.7234 18.7519 12.7245C18.5278 12.7247 18.3075 12.731 18.0898 12.7412C18.0807 12.7175 18.0702 12.6941 18.0572 12.6716L15.9 8.93514C15.7697 8.70946 15.4838 8.62778 15.2539 8.7507C15.1649 8.7983 13.0488 9.93833 11.0133 11.7902C9.80458 12.8898 8.87832 14.0128 8.26023 15.1279C7.48988 16.5178 7.19724 17.8997 7.38655 19.2379C6.73941 19.9592 6.18924 20.6399 5.80937 21.2018C5.66743 21.4118 5.43001 21.5373 5.17443 21.5373C5.07087 21.5373 4.9696 21.5168 4.87343 21.4763C3.6814 20.9747 2.22943 20.4544 0.4988 20.3982C0.278676 20.3924 0.0802618 20.5348 0.0190305 20.7472C-0.0422008 20.9597 0.0486437 21.1864 0.239498 21.298C2.93797 22.8749 4.76196 26.0343 4.7784 29.1596C4.77955 29.3806 4.93071 29.5727 5.14522 29.6259C5.184 29.6355 5.223 29.6401 5.2615 29.6401C5.43648 29.6401 5.6019 29.5446 5.68736 29.3848C6.38004 28.0899 6.81926 26.7903 7.06962 25.2952C7.12948 24.9379 7.41931 24.6713 7.77438 24.6471C10.0861 24.4886 14.603 23.2972 17.161 22.0351C18.4978 22.4899 18.7666 24.7049 18.7691 24.7267C18.7881 24.8978 18.8967 25.0459 19.0543 25.1155C19.1167 25.143 19.1831 25.1566 19.2492 25.1566C19.3497 25.1566 19.4496 25.1251 19.5336 25.0639C20.5417 24.3296 21.1213 23.4359 21.2564 22.4076C21.4331 21.0627 20.785 19.8819 20.4495 19.3749C20.9045 18.8127 21.327 18.1854 21.7143 17.4934C22.3027 16.4422 22.9949 15.4856 23.7717 14.6502L29.1977 8.81423C29.3607 8.63895 29.3706 8.37066 29.2212 8.18364ZM15.3041 9.83522L17.035 12.8333C15.6499 13.0123 14.4099 13.413 13.3353 14.0334C11.8899 14.8678 9.92911 16.5788 8.30038 18.2593C8.46076 14.1863 13.7778 10.7415 15.3041 9.83522ZM20.2985 22.2818C20.2275 22.8217 19.9781 23.3197 19.5548 23.7689C19.3567 23.0555 18.9511 22.064 18.152 21.4758C18.7288 21.1014 19.2725 20.6515 19.781 20.1286C20.052 20.5947 20.4135 21.4067 20.2985 22.2818ZM23.0641 13.9924C22.235 14.8841 21.4972 15.9033 20.8712 17.0216C19.8922 18.7706 18.6859 20.0672 17.2857 20.8756C15.0482 22.1673 10.0661 23.5218 7.70823 23.6834C6.90506 23.7384 6.25059 24.3357 6.11667 25.1359C5.98705 25.9102 5.80307 26.6277 5.55442 27.3189C5.33567 26.2325 4.93065 25.1646 4.35311 24.1643C3.79412 23.1961 3.09944 22.3362 2.30143 21.6175C3.11393 21.8125 3.84716 22.0927 4.49877 22.3669C4.71414 22.4575 4.94148 22.5035 5.17443 22.5035C5.75129 22.5035 6.28794 22.2192 6.60979 21.743C7.96283 19.7415 11.555 16.1768 13.8184 14.87C15.1711 14.0891 16.8312 13.6923 18.7527 13.6907C20.1323 13.6895 21.498 13.3186 22.7019 12.6181L26.2748 10.539L23.0641 13.9924Z" fill="white"/>
<path d="M20.3358 6.09372C19.4036 6.09372 18.6451 6.85215 18.6451 7.78437C18.6451 8.71664 19.4036 9.47502 20.3358 9.47502C21.268 9.47502 22.0264 8.71658 22.0264 7.78437C22.0264 6.85215 21.268 6.09372 20.3358 6.09372ZM20.3358 8.50895C19.9363 8.50895 19.6112 8.18395 19.6112 7.78437C19.6112 7.38485 19.9363 7.05979 20.3358 7.05979C20.7353 7.05979 21.0604 7.38479 21.0604 7.78437C21.0604 8.18389 20.7354 8.50895 20.3358 8.50895Z" fill="white"/>
<path d="M24.1197 0.840576C22.9433 0.840576 21.9863 1.79765 21.9863 2.97399C21.9862 4.15045 22.9433 5.10746 24.1197 5.10746C25.2961 5.10746 26.2531 4.15039 26.2531 2.97399C26.2531 1.79765 25.296 0.840576 24.1197 0.840576ZM24.1197 4.1414C23.476 4.1414 22.9523 3.61769 22.9523 2.97399C22.9523 2.33035 23.476 1.80664 24.1197 1.80664C24.7634 1.80664 25.287 2.33035 25.287 2.97399C25.287 3.61769 24.7633 4.1414 24.1197 4.1414Z" fill="white"/>
<path d="M15.6353 17.6504C15.5019 17.4194 15.2065 17.3403 14.9754 17.4736L9.01383 20.9156C8.78283 21.049 8.70367 21.3444 8.83701 21.5754C8.92648 21.7304 9.08887 21.817 9.25584 21.817C9.33775 21.817 9.42086 21.7961 9.49693 21.7523L15.4585 18.3103C15.6895 18.1769 15.7687 17.8815 15.6353 17.6504Z" fill="white"/>
</g>
<defs>
<clipPath id="clip0_29_764">
<rect y="0.576935" width="29.3269" height="29.3269" rx="12" fill="white"/>
</clipPath>
</defs>
</svg>
