<svg width="36" height="36" viewBox="0 0 36 36" fill="none" xmlns="http://www.w3.org/2000/svg">
<path d="M18 36C27.9411 36 36 27.9411 36 18C36 8.05887 27.9411 0 18 0C8.05887 0 0 8.05887 0 18C0 27.9411 8.05887 36 18 36Z" fill="white"/>
<path d="M30.7263 5.27246C37.7549 12.3008 37.7554 23.6968 30.726 30.726C23.6973 37.7549 12.3008 37.7549 5.27246 30.7265L30.7263 5.27246Z" fill="white"/>
<path d="M35.834 20.3971L30.9697 15.5328L30.5687 15.9335L24.4408 9.80596L24.1231 10.1234L23.3877 9.38794L22.4891 10.2865L21.7611 9.55867L20.59 10.7295L22.0191 12.1584L16.5313 17.6468L11.183 12.2991L10.0122 13.4696L11.5535 15.0108L10.4688 16.0952L12.2384 17.8648L11.4584 18.6449L13.6142 20.801L13.2624 21.1531L15.2411 23.1322L12.9168 25.4568L11.1853 23.7256L9.51288 25.3979L7.43781 23.3226L7.02063 23.7401L19.2321 35.9516C27.7965 35.3712 34.7138 28.8029 35.834 20.3971Z" fill="white"/>
<path d="M28.1378 17.2246C29.5764 17.1061 30.5517 16.4519 30.9274 15.5646C30.4082 15.8835 28.7975 16.231 27.9079 15.8997C27.8645 15.6912 27.8159 15.4922 27.7681 15.3135C27.0904 12.8243 24.7698 10.8198 22.3383 11.0616C22.5349 10.9823 22.735 10.9081 22.9336 10.8419C23.201 10.7459 24.7714 10.4901 24.5244 9.93595C24.3159 9.44859 22.3974 10.3045 22.0361 10.4165C22.513 10.2372 23.3016 9.92851 23.3858 9.38062C22.6551 9.48064 21.9381 9.8262 21.3843 10.3287C21.584 10.113 21.7358 9.85066 21.7682 9.56821C19.819 10.8129 18.6806 13.3225 17.7598 15.7571C17.0365 15.0563 16.3955 14.5042 15.82 14.1978C14.2067 13.3322 12.2777 12.4293 9.24948 11.3054C9.15652 12.3071 9.74481 13.6396 11.4402 14.5254C11.0728 14.4763 10.4018 14.5863 9.86382 14.7147C10.0829 15.8625 10.7971 16.808 12.7326 17.2655C11.8483 17.3238 11.3913 17.5249 10.9772 17.9586C11.3794 18.7569 12.3623 19.6964 14.1294 19.5034C12.1648 20.3502 13.3288 21.9195 14.9279 21.6853C12.1998 24.5032 7.89843 24.2964 5.42859 21.9397C11.8772 30.7268 25.8955 27.1362 27.9837 18.6724C29.549 18.6855 30.4692 18.1303 31.0395 17.5181C30.1376 17.6713 28.8306 17.5132 28.1378 17.2246Z" fill="#008036"/>
</svg>
