<svg width="40" height="40" viewBox="0 0 40 40" fill="none" xmlns="http://www.w3.org/2000/svg">
<path d="M20 0L23.3682 4.15401L28.1347 1.72909L29.5221 6.89392L34.8629 6.61739L34.0296 11.9L39.0211 13.8197L36.1113 18.3066L39.8904 22.0906L35.4071 25.0061L37.3205 30L32.0389 30.8399L31.7557 36.1803L26.5891 34.7994L24.1582 39.563L20 36.2L15.8418 39.563L13.4109 34.7994L8.2443 36.1803L7.96105 30.8399L2.67949 30L4.59288 25.0061L0.109562 22.0906L3.88874 18.3066L0.97887 13.8197L5.97039 11.9L5.1371 6.61739L10.4779 6.89392L11.8653 1.72909L16.6318 4.15401L20 0Z" fill="#1A874A"/>
<path d="M12.0871 21.3794L16 27" stroke="white" stroke-width="3" stroke-linecap="round"/>
<line x1="16.4735" y1="27.0556" x2="28.8669" y2="14.1598" stroke="white" stroke-width="3" stroke-linecap="round"/>
</svg>
